<svg id="SvgjsSvg1017" width="288" height="288" xmlns="http://www.w3.org/2000/svg" version="1.1" xmlns:xlink="http://www.w3.org/1999/xlink" xmlns:svgjs="http://svgjs.com/svgjs"><defs id="SvgjsDefs1018"></defs><g id="SvgjsG1019"><svg xmlns="http://www.w3.org/2000/svg" enable-background="new 0 0 69.571 69.571" viewBox="0 0 69.571 69.571" width="288" height="288"><path d="M60.571,10.786H9c-4.962,0-9,4.038-9,9v30c0,4.963,4.038,9,9,9h51.571c4.963,0,9-4.037,9-9v-30
		C69.571,14.823,65.534,10.786,60.571,10.786z M9,16.786h51.571c1.654,0,3,1.346,3,3v3.852H6v-3.852C6,18.132,7.346,16.786,9,16.786
		z M60.571,52.785H9c-1.654,0-3-1.346-3-3V31.637h57.571v18.148C63.571,51.439,62.225,52.785,60.571,52.785z" fill="#ffffff" class="color000 svgShape"></path></svg></g></svg>