<svg xmlns="http://www.w3.org/2000/svg" width="36" height="36" viewBox="0 0 36 36">
  <path id="Icon_awesome-file-import" data-name="Icon awesome-file-import" d="M1.125,20.25A1.128,1.128,0,0,0,0,21.375v2.25A1.128,1.128,0,0,0,1.125,24.75H9v-4.5ZM35.508,7.383,28.624.492A1.686,1.686,0,0,0,27.429,0H27V9h9V8.571A1.682,1.682,0,0,0,35.508,7.383ZM24.75,9.563V0H10.688A1.683,1.683,0,0,0,9,1.688V20.25h9V15.666a1.128,1.128,0,0,1,1.927-.795l6.722,6.785a1.2,1.2,0,0,1,0,1.688L19.92,30.122a1.128,1.128,0,0,1-1.927-.795V24.75H9v9.563A1.683,1.683,0,0,0,10.688,36H34.313A1.683,1.683,0,0,0,36,34.313V11.25H26.438A1.692,1.692,0,0,1,24.75,9.563Z" fill="#3184fc"/>
</svg>
