<svg xmlns="http://www.w3.org/2000/svg" width="34.496" height="39.425" viewBox="0 0 34.496 39.425">
  <path id="Icon_metro-files-empty" data-name="Icon metro-files-empty" d="M37.371,15.676a34.9,34.9,0,0,0-3.356-3.839,34.919,34.919,0,0,0-3.839-3.356c-1.986-1.456-2.949-1.624-3.5-1.624H12.507a3.083,3.083,0,0,0-3.08,3.08V38.272a3.083,3.083,0,0,0,3.08,3.08H35.915A3.084,3.084,0,0,0,39,38.272v-19.1c0-.552-.168-1.515-1.624-3.5Zm-5.1-2.1a33.6,33.6,0,0,1,2.794,3.133H29.139V10.785a33.581,33.581,0,0,1,3.133,2.794Zm4.259,24.693a.624.624,0,0,1-.616.616H12.507a.624.624,0,0,1-.616-.616V9.936a.624.624,0,0,1,.616-.616H26.675v8.624a1.232,1.232,0,0,0,1.232,1.232h8.624ZM25.248,3.553C23.262,2.1,22.3,1.928,21.747,1.928H7.579A3.084,3.084,0,0,0,4.5,5.008V33.344a3.085,3.085,0,0,0,2.464,3.018V5.008a.624.624,0,0,1,.616-.616H26.324c-.371-.3-.733-.588-1.076-.839Z" transform="translate(-4.499 -1.928)" fill="#3184fc"/>
</svg>
