<svg id="SvgjsSvg1001" width="288" height="288" xmlns="http://www.w3.org/2000/svg" version="1.1" xmlns:xlink="http://www.w3.org/1999/xlink" xmlns:svgjs="http://svgjs.com/svgjs"><defs id="SvgjsDefs1002"></defs><g id="SvgjsG1008" transform="matrix(1,0,0,1,0,0)"><svg xmlns="http://www.w3.org/2000/svg" enable-background="new 0 0 298.73 298.73" viewBox="0 0 298.73 298.73" width="288" height="288"><path fill="#6666ff" d="M264.959,9.35H33.787C15.153,9.35,0,24.498,0,43.154v212.461c0,18.634,15.153,33.766,33.787,33.766
		h231.171c18.634,0,33.771-15.132,33.771-33.766V43.154C298.73,24.498,283.593,9.35,264.959,9.35z M193.174,59.623
		c18.02,0,32.634,14.615,32.634,32.634s-14.615,32.634-32.634,32.634c-18.025,0-32.634-14.615-32.634-32.634
		S175.149,59.623,193.174,59.623z M254.363,258.149H149.362H49.039c-9.013,0-13.027-6.521-8.964-14.566l56.006-110.93
		c4.058-8.044,11.792-8.762,17.269-1.605l56.316,73.596c5.477,7.158,15.05,7.767,21.386,1.354l13.777-13.951
		c6.331-6.413,15.659-5.619,20.826,1.762l35.675,50.959C266.487,252.16,263.376,258.149,254.363,258.149z" class="color010002 svgShape"></path></svg></g></svg>