<svg id="SvgjsSvg1001" width="288" height="288" xmlns="http://www.w3.org/2000/svg" version="1.1" xmlns:xlink="http://www.w3.org/1999/xlink" xmlns:svgjs="http://svgjs.com/svgjs"><defs id="SvgjsDefs1002"></defs><g id="SvgjsG1008" transform="matrix(0.9167,0,0,0.9167,11.995200000000011,11.995200000000011)"><svg xmlns="http://www.w3.org/2000/svg" enable-background="new 0 0 512 512" viewBox="0 0 512 512" width="288" height="288"><path d="M192 64H32C14.328 64 0 78.328 0 96v96c0 17.672 14.328 32 32 32s32-14.328 32-32v-64h128c17.672 0 32-14.328 32-32S209.672 64 192 64zM480 64H320c-17.672 0-32 14.328-32 32s14.328 32 32 32h128v64c0 17.672 14.328 32 32 32s32-14.328 32-32V96C512 78.328 497.672 64 480 64zM480 288c-17.672 0-32 14.328-32 32v64H320c-17.672 0-32 14.328-32 32s14.328 32 32 32h160c17.672 0 32-14.328 32-32v-96C512 302.328 497.672 288 480 288zM192 384H64v-64c0-17.672-14.328-32-32-32S0 302.328 0 320v96c0 17.672 14.328 32 32 32h160c17.672 0 32-14.328 32-32S209.672 384 192 384z" fill="#6666ff" class="color000 svgShape"></path></svg></g></svg>