<svg id="SvgjsSvg1001" width="288" height="288" xmlns="http://www.w3.org/2000/svg" version="1.1" xmlns:xlink="http://www.w3.org/1999/xlink" xmlns:svgjs="http://svgjs.com/svgjs"><defs id="SvgjsDefs1002"></defs><g id="SvgjsG1008" transform="matrix(1,0,0,1,0,0)"><svg xmlns="http://www.w3.org/2000/svg" width="288" height="288" enable-background="new 0 0 612 612" viewBox="0 0 612 612"><path d="M494.7,255C476.85,168.3,400.35,102,306,102c-73.95,0-137.7,40.8-168.3,102C58.65,214.2,0,277.95,0,357
			c0,84.15,68.85,153,153,153h331.5c71.4,0,127.5-56.1,127.5-127.5C612,316.2,558.45,260.1,494.7,255z M357,331.5v102H255v-102
			h-76.5L306,204l127.5,127.5H357z" fill="#6666ff" class="color000 svgShape"></path></svg></g></svg>